<?xml version="1.0" standalone="no"?>
<!DOCTYPE svg PUBLIC "-//W3C//DTD SVG 20010904//EN"
 "http://www.w3.org/TR/2001/REC-SVG-20010904/DTD/svg10.dtd">
<svg version="1.0" xmlns="http://www.w3.org/2000/svg"
 width="512.000000pt" height="512.000000pt" viewBox="0 0 512.000000 512.000000"
 preserveAspectRatio="xMidYMid meet">
<metadata>
Created by potrace 1.11, written by Peter Selinger 2001-2013
</metadata>
<g transform="translate(0.000000,512.000000) scale(0.100000,-0.100000)"
fill="#000000" stroke="none">
<path d="M0 2560 l0 -2560 2560 0 2560 0 0 2560 0 2560 -2560 0 -2560 0 0
-2560z m2871 2311 c140 -32 272 -80 417 -151 676 -332 1083 -952 1022 -1556
-36 -354 -213 -797 -528 -1323 -291 -487 -645 -966 -1188 -1608 l-21 -25 -144
179 c-828 1023 -1338 1830 -1527 2414 -69 214 -77 262 -77 469 0 139 5 206 18
270 89 424 333 773 721 1031 240 159 516 269 795 314 122 20 397 13 512 -14z"/>
<path d="M2451 3584 c-188 -68 -275 -252 -198 -418 15 -32 44 -81 64 -110 49
-67 233 -256 250 -256 23 0 209 188 258 259 111 163 112 307 2 427 -70 77
-138 107 -246 111 -61 2 -99 -2 -130 -13z"/>
<path d="M1494 3299 c21 -231 101 -471 266 -804 157 -315 368 -646 662 -1036
136 -181 144 -188 161 -167 263 331 539 738 712 1050 191 342 323 710 341 944
l7 84 -217 0 -216 0 0 -32 c-1 -104 -71 -288 -162 -425 -69 -104 -296 -349
-429 -464 l-58 -50 -189 188 c-103 103 -216 226 -250 272 -105 140 -179 311
-198 459 l-7 52 -215 0 -215 0 7 -71z"/>
</g>
</svg>
